<svg viewBox="0 0 400 600" xmlns="http://www.w3.org/2000/svg"><defs><linearGradient id="a" x1="0%" y1="0%" x2="100%" y2="100%"><stop offset="0%" style="stop-color:#121823;stop-opacity:1"/><stop offset="100%" style="stop-color:#2a3142;stop-opacity:1"/></linearGradient><pattern id="b" patternUnits="userSpaceOnUse" width="160" height="160"><text y="15" fill="#3a4255" font-family="monospace" font-size="12">sudo apt-get sudoku</text><text x="20" y="35" fill="#3a4255" font-family="monospace" font-size="12">01001 10110</text><text x="5" y="55" fill="#3a4255" font-family="monospace" font-size="12">solve(puzzle)</text><text x="15" y="75" fill="#3a4255" font-family="monospace" font-size="12">grid[i][j] = val</text><text y="95" fill="#3a4255" font-family="monospace" font-size="12">backtrack()</text><text x="25" y="115" fill="#3a4255" font-family="monospace" font-size="12">check_valid()</text><text x="10" y="135" fill="#3a4255" font-family="monospace" font-size="12">return solution</text><text x="5" y="155" fill="#3a4255" font-family="monospace" font-size="12">game.start()</text></pattern><text font-family="monospace" font-size="24" fill="#4a5568" text-anchor="middle" id="c">#</text></defs><rect width="100%" height="100%" fill="url(#a)"/><rect width="100%" height="100%" fill="url(#b)" opacity=".12"/><path d="M0 75h400M0 150h400M0 225h400M0 300h400M0 375h400M0 450h400M0 525h400M50 0v600M100 0v600M150 0v600M200 0v600M250 0v600M300 0v600M350 0v600" stroke="#3a4255" stroke-width=".5" opacity=".3"/><use href="#c" x="75" y="100"><animateTransform attributeName="transform" type="rotate" values="0 75 100;360 75 100" dur="15s" repeatCount="indefinite"/></use><use href="#c" x="325" y="150"><animateTransform attributeName="transform" type="rotate" values="0 325 150;-360 325 150" dur="20s" repeatCount="indefinite"/></use><use href="#c" x="125" y="350"><animateTransform attributeName="transform" type="rotate" values="0 125 350;360 125 350" dur="18s" repeatCount="indefinite"/></use><use href="#c" x="275" y="450"><animateTransform attributeName="transform" type="rotate" values="0 275 450;-360 275 450" dur="22s" repeatCount="indefinite"/></use><use href="#c" x="200" y="250"><animateTransform attributeName="transform" type="rotate" values="0 200 250;360 200 250" dur="25s" repeatCount="indefinite"/></use><text x="30" y="200" font-family="monospace" font-size="60" fill="#3a4255" opacity=".08">1</text><text x="360" y="210" font-family="monospace" font-size="80" fill="#3a4255" opacity=".05">9</text><text x="70" y="500" font-family="monospace" font-size="70" fill="#3a4255" opacity=".07">7</text><text x="300" y="100" font-family="monospace" font-size="85" fill="#3a4255" opacity=".06">4</text><text x="220" y="420" font-family="monospace" font-size="75" fill="#3a4255" opacity=".04">5</text><text x="200" y="555" font-family="sans-serif" font-size="14" fill="#4a5568" text-anchor="middle" opacity=".7">SUDOKU</text><radialGradient id="d" cx="50%" cy="50%" r="65%" fx="50%" fy="50%"><stop offset="0%" style="stop-color:#000;stop-opacity:0"/><stop offset="100%" style="stop-color:#000;stop-opacity:.3"/></radialGradient><rect width="100%" height="100%" fill="url(#d)"/></svg>